<?xml version="1.0" standalone="no"?>
<!DOCTYPE svg PUBLIC "-//W3C//DTD SVG 20010904//EN"
 "http://www.w3.org/TR/2001/REC-SVG-20010904/DTD/svg10.dtd">
<svg version="1.0" xmlns="http://www.w3.org/2000/svg"
 width="84.000000pt" height="84.000000pt" viewBox="0 0 84.000000 84.000000"
 preserveAspectRatio="xMidYMid meet">
<metadata>
Created by potrace 1.10, written by Peter Selinger 2001-2011
</metadata>
<g transform="translate(0.000000,84.000000) scale(0.100000,-0.100000)"
fill="#000000" stroke="none">
<path d="M292 775 c-50 -42 -51 -75 -2 -194 24 -56 45 -103 49 -105 9 -6 193
72 213 91 28 26 42 79 28 113 -17 41 -42 60 -86 67 -22 3 -49 15 -61 25 -12
11 -41 23 -65 25 -37 4 -49 1 -76 -22z m124 -30 c17 -18 36 -25 61 -25 65 0
104 -63 74 -119 -12 -22 -190 -97 -200 -85 -14 16 -71 163 -71 182 0 11 9 31
21 46 28 35 80 36 115 1z"/>
<path d="M526 671 c-3 -5 -3 -16 0 -24 3 -9 -4 -25 -15 -36 -25 -25 -26 -31
-7 -31 20 0 46 39 46 67 0 24 -15 39 -24 24z"/>
<path d="M57 632 c-14 -15 -17 -42 -17 -153 l0 -135 61 -59 c73 -72 89 -105
89 -185 l0 -60 95 0 95 0 0 111 c0 61 -5 120 -11 132 -6 12 -36 45 -67 73 -54
49 -56 53 -41 70 32 37 41 62 28 85 -8 16 -18 20 -38 17 -28 -4 -28 -3 -23 38
4 35 1 44 -16 53 -28 15 -50 4 -67 -33 l-13 -31 -1 37 c-1 26 -7 40 -20 48
-27 14 -35 13 -54 -8z m51 -122 l3 -105 62 -62 c34 -35 65 -63 69 -63 20 0 3
24 -54 79 -52 51 -59 62 -48 75 14 18 35 3 148 -102 l62 -58 0 -72 0 -72 -64
0 -64 0 -11 47 c-10 37 -26 60 -77 110 l-64 63 0 136 c0 124 2 135 18 132 15
-3 17 -18 20 -108z m97 80 c3 -5 -1 -36 -10 -69 -14 -49 -20 -58 -36 -54 -10
3 -19 6 -19 7 0 6 33 112 37 119 6 10 21 9 28 -3z m45 -135 c-18 -29 -25 -33
-36 -24 -15 12 -13 16 25 62 26 32 36 2 11 -38z m100 -372 c0 -16 -10 -18 -67
-17 -55 1 -69 4 -71 17 -3 15 7 17 67 17 61 0 71 -2 71 -17z"/>
<path d="M728 639 c-12 -6 -18 -23 -19 -47 l-1 -37 -14 32 c-18 42 -52 53 -75
24 -14 -17 -16 -28 -8 -54 5 -17 9 -33 9 -35 0 -1 -8 2 -18 7 -14 7 -25 6 -40
-5 -28 -20 -28 -33 4 -80 l26 -38 -55 -51 c-30 -27 -60 -60 -66 -72 -6 -12
-11 -71 -11 -132 l0 -111 95 0 95 0 0 60 c0 80 16 113 89 185 l61 59 0 137 c0
119 -2 138 -18 152 -21 19 -30 20 -54 6z m42 -152 l0 -133 -31 -30 c-66 -62
-109 -125 -109 -160 l0 -34 -70 0 -70 0 0 72 0 72 63 58 c112 105 133 120 147
102 11 -13 4 -24 -48 -75 -57 -55 -74 -79 -55 -79 4 0 36 28 70 62 l63 62 0
102 c0 102 3 114 27 114 10 0 13 -29 13 -133z m-93 63 c7 -23 15 -51 18 -61 5
-14 1 -19 -14 -19 -16 0 -24 12 -36 55 -9 30 -13 60 -10 65 12 20 29 4 42 -40z
m-43 -112 c-10 -16 -30 -7 -47 22 -27 46 -9 60 24 20 16 -18 26 -37 23 -42z
m-14 -355 c0 -16 -10 -18 -67 -17 -55 1 -69 4 -71 17 -3 15 7 17 67 17 61 0
71 -2 71 -17z"/>
</g>
</svg>
